<mxfile host="" modified="2021-01-11T04:24:47.178Z" agent="5.0 (X11; Linux x86_64) AppleWebKit/537.36 (KHTML, like Gecko) Chrome/84.0.4147.105 Safari/537.36" etag="NQ3OtpI7eXMbmYoBQ5XI" version="13.7.9" type="embed"><diagram id="p0rCn7trr7TIcpIMTrw5" name="Page-1"><mxGraphModel dx="3931" dy="2177" grid="1" gridSize="10" guides="1" tooltips="1" connect="1" arrows="1" fold="1" page="1" pageScale="1" pageWidth="850" pageHeight="1100" math="0" shadow="0"><root><mxCell id="0"/><mxCell id="1" parent="0"/><mxCell id="143" value="" style="rounded=0;whiteSpace=wrap;html=1;labelBackgroundColor=none;fillColor=none;dashed=1;" vertex="1" parent="1"><mxGeometry x="185" y="340" width="845" height="600" as="geometry"/></mxCell><mxCell id="145" style="edgeStyle=orthogonalEdgeStyle;curved=1;rounded=0;orthogonalLoop=1;jettySize=auto;html=1;entryX=0.5;entryY=1;entryDx=0;entryDy=0;" edge="1" parent="1" source="144" target="159"><mxGeometry relative="1" as="geometry"/></mxCell><mxCell id="146" value="RGB Image" style="edgeLabel;html=1;align=center;verticalAlign=middle;resizable=0;points=[];" vertex="1" connectable="0" parent="145"><mxGeometry x="-0.1429" y="1" relative="1" as="geometry"><mxPoint as="offset"/></mxGeometry></mxCell><mxCell id="144" value="&lt;font style=&quot;font-size: 19px&quot;&gt;Camera2&lt;/font&gt;" style="ellipse;whiteSpace=wrap;html=1;" vertex="1" parent="1"><mxGeometry x="20" y="860" width="120" height="80" as="geometry"/></mxCell><mxCell id="153" style="edgeStyle=orthogonalEdgeStyle;curved=1;rounded=0;orthogonalLoop=1;jettySize=auto;html=1;" edge="1" parent="1" source="148" target="150"><mxGeometry relative="1" as="geometry"/></mxCell><mxCell id="154" style="edgeStyle=orthogonalEdgeStyle;curved=1;rounded=0;orthogonalLoop=1;jettySize=auto;html=1;" edge="1" parent="1" source="148" target="151"><mxGeometry relative="1" as="geometry"/></mxCell><mxCell id="148" value="YOLO Detection" style="rounded=0;whiteSpace=wrap;html=1;" vertex="1" parent="1"><mxGeometry x="440" y="610" width="120" height="60" as="geometry"/></mxCell><mxCell id="147" value="&lt;font style=&quot;font-size: 14px&quot;&gt;YOLO Detection Node&lt;/font&gt;" style="text;html=1;strokeColor=none;fillColor=none;align=center;verticalAlign=middle;whiteSpace=wrap;rounded=0;" vertex="1" parent="1"><mxGeometry x="532.5" y="360" width="150" height="20" as="geometry"/></mxCell><mxCell id="156" style="edgeStyle=orthogonalEdgeStyle;curved=1;rounded=0;orthogonalLoop=1;jettySize=auto;html=1;" edge="1" parent="1" source="150" target="155"><mxGeometry relative="1" as="geometry"/></mxCell><mxCell id="150" value="Detection score filtering" style="rounded=0;whiteSpace=wrap;html=1;" vertex="1" parent="1"><mxGeometry x="665" y="740" width="120" height="60" as="geometry"/></mxCell><mxCell id="157" style="edgeStyle=orthogonalEdgeStyle;curved=1;rounded=0;orthogonalLoop=1;jettySize=auto;html=1;entryX=0.5;entryY=0;entryDx=0;entryDy=0;" edge="1" parent="1" source="151" target="155"><mxGeometry relative="1" as="geometry"/></mxCell><mxCell id="151" value="Class probability finding" style="rounded=0;whiteSpace=wrap;html=1;" vertex="1" parent="1"><mxGeometry x="665" y="480" width="120" height="60" as="geometry"/></mxCell><mxCell id="173" style="edgeStyle=orthogonalEdgeStyle;curved=1;rounded=0;orthogonalLoop=1;jettySize=auto;html=1;entryX=1;entryY=0.5;entryDx=0;entryDy=0;" edge="1" parent="1" source="155" target="170"><mxGeometry relative="1" as="geometry"><Array as="points"><mxPoint x="1060" y="640"/><mxPoint x="1060" y="130"/></Array></mxGeometry></mxCell><mxCell id="155" value="NMS box filtering" style="rounded=0;whiteSpace=wrap;html=1;" vertex="1" parent="1"><mxGeometry x="850" y="610" width="120" height="60" as="geometry"/></mxCell><mxCell id="160" style="edgeStyle=orthogonalEdgeStyle;curved=1;rounded=0;orthogonalLoop=1;jettySize=auto;html=1;entryX=0.5;entryY=0;entryDx=0;entryDy=0;" edge="1" parent="1" source="158" target="159"><mxGeometry relative="1" as="geometry"/></mxCell><mxCell id="158" value="&lt;font style=&quot;font-size: 19px&quot;&gt;Camera2&lt;/font&gt;" style="ellipse;whiteSpace=wrap;html=1;" vertex="1" parent="1"><mxGeometry x="20" y="340" width="120" height="80" as="geometry"/></mxCell><mxCell id="162" style="edgeStyle=orthogonalEdgeStyle;curved=1;rounded=0;orthogonalLoop=1;jettySize=auto;html=1;" edge="1" parent="1" source="159" target="148"><mxGeometry relative="1" as="geometry"/></mxCell><mxCell id="159" value="&lt;font style=&quot;font-size: 19px&quot;&gt;Camera Switching Service&lt;/font&gt;" style="rhombus;whiteSpace=wrap;html=1;" vertex="1" parent="1"><mxGeometry x="240" y="580" width="150" height="120" as="geometry"/></mxCell><mxCell id="171" style="edgeStyle=orthogonalEdgeStyle;curved=1;rounded=0;orthogonalLoop=1;jettySize=auto;html=1;entryX=1;entryY=0;entryDx=0;entryDy=0;" edge="1" parent="1" source="170" target="159"><mxGeometry relative="1" as="geometry"/></mxCell><mxCell id="172" value="Change Camera&lt;br&gt;&amp;nbsp;Request" style="edgeLabel;html=1;align=center;verticalAlign=middle;resizable=0;points=[];" vertex="1" connectable="0" parent="171"><mxGeometry x="0.0272" y="35" relative="1" as="geometry"><mxPoint as="offset"/></mxGeometry></mxCell><mxCell id="170" value="&lt;font style=&quot;font-size: 19px&quot;&gt;UserNode&lt;/font&gt;" style="ellipse;whiteSpace=wrap;html=1;" vertex="1" parent="1"><mxGeometry x="547.5" y="90" width="120" height="80" as="geometry"/></mxCell></root></mxGraphModel></diagram></mxfile>